<?xml version="1.0" encoding="utf-8"?>
<!-- Generator: Adobe Illustrator 25.4.1, SVG Export Plug-In . SVG Version: 6.00 Build 0)  -->
<svg version="1.1" id="Layer_1" xmlns="http://www.w3.org/2000/svg" xmlns:xlink="http://www.w3.org/1999/xlink" x="0px" y="0px"
	 viewBox="0 0 140.9 34" style="enable-background:new 0 0 140.9 34;" xml:space="preserve">
<style type="text/css">
	.st0{clip-path:url(#SVGID_00000045605623835674839730000004119593024780627852_);}
	.st1{fill:#4A835B;}
	.st2{fill:#FFFFFF;}
	.st3{fill:#00985F;}
	.st4{fill:#E0001A;}
</style>
<g>
	<defs>
		<rect id="SVGID_1_" width="141" height="34"/>
	</defs>
	<clipPath id="SVGID_00000142881233317148716990000014457281905039503747_">
		<use xlink:href="#SVGID_1_"  style="overflow:visible;"/>
	</clipPath>
	<g style="clip-path:url(#SVGID_00000142881233317148716990000014457281905039503747_);">
		<path class="st1" d="M34.1,8.5h-3l-0.7,0.9c-0.1,0.1-0.1,0.3,0,0.3l1,0.4l2.8-1.3c0,0,0.1,0,0.1-0.1s0-0.1,0-0.1
			c0,0,0-0.1-0.1-0.1C34.2,8.5,34.1,8.5,34.1,8.5L34.1,8.5z"/>
		<path class="st2" d="M28.2,10.1c0.3-0.3,0.3-0.8,0-1.2c-0.3-0.3-0.8-0.3-1.2,0c-0.3,0.3-0.3,0.8,0,1.2
			C27.4,10.4,27.9,10.4,28.2,10.1z"/>
		<path class="st3" d="M23.1,23h-3.6c-0.8,0.5-1.7,0.9-2.5,1.2c-0.1,0-0.1,0.1-0.1,0.2l3.3,9h1.8l-3-8.2H19c1.9,0,6.6-0.5,9.1-4.5
			c-0.6,0.8-1.3,1.4-2.2,1.8C25,22.8,24,23,23.1,23z M23.6,17.6c0.2-0.3,0.4-0.6,0.6-0.9c-0.1,0-0.2-0.1-0.2,0
			c-1.3,1.4-2.8,2.6-4.6,3.3c-1.8,0.8-3.7,1.1-5.6,1.1H9.4c-0.1,0-0.2-0.1-0.1-0.2c2.8-3.8,6.1-7.3,9.7-10.4l-7.2,6
			c-0.6,0.5-1.4,0.8-2.2,0.8h-9c-0.3,0-0.2,0.2-0.1,0.3c0.3,1.1,1.1,2.1,2,2.7c1,0.7,2.1,1,3.3,0.9l-2.1,2.2
			c-0.1,0.1-0.1,0.3,0.1,0.3h8.1c2.3,0.1,4.6-0.4,6.7-1.5C20.6,21.2,22.4,19.6,23.6,17.6L23.6,17.6z M21.2,26.7l2.4,6.7h1.8l-2.6-7
			C22.3,26.5,21.8,26.6,21.2,26.7L21.2,26.7z M34.1,8.5h-3l-0.7,0.9c-0.1,0.1-0.1,0.3,0,0.3l1,0.4l2.8-1.3c0,0,0.1,0,0.1-0.1
			c0,0,0-0.1,0-0.1c0,0,0-0.1-0.1-0.1C34.2,8.5,34.2,8.5,34.1,8.5L34.1,8.5z M28.2,10.1c-0.1,0.1-0.3,0.2-0.4,0.2s-0.3,0-0.5,0
			c-0.1-0.1-0.3-0.2-0.4-0.3c-0.1-0.1-0.1-0.3-0.1-0.5c0-0.2,0-0.3,0.1-0.5c0.1-0.1,0.2-0.2,0.4-0.3c0.1-0.1,0.3-0.1,0.5,0
			s0.3,0.1,0.4,0.2c-0.3-0.3-0.7-0.4-1-0.4c-0.4,0-0.8,0.2-1,0.4c-0.3,0.3-0.4,0.6-0.4,1c0,0.4,0.2,0.8,0.4,1s0.7,0.4,1,0.4
			c0.4,0,0.8-0.2,1-0.4c0.3-0.3,0.4-0.6,0.4-1s-0.2-0.8-0.4-1c0.2,0.2,0.2,0.4,0.2,0.6S28.4,10,28.2,10.1z"/>
		<path class="st2" d="M28.2,10c0.3-0.3,0.3-0.7,0-1c-0.3-0.3-0.7-0.3-1,0c-0.3,0.3-0.3,0.7,0,1C27.5,10.3,27.9,10.3,28.2,10z"/>
		<path class="st4" d="M28,20.6c1.7-3.3,2.9-6.8,3.4-10.5l-1-0.4c-0.1,0-0.2-0.2,0-0.3l0.7-0.9c-0.5-0.7-1.1-1.3-1.9-1.7
			c-0.8-0.4-1.6-0.6-2.5-0.6c-1.3,0-2.6,0.4-3.8,1.1c-1.4,1-2.7,2-4,3.1c-3.6,3.1-6.9,6.6-9.7,10.4c-0.1,0.1,0,0.2,0.1,0.2h4.3
			c1.9,0.1,3.8-0.3,5.6-1.1c1.8-0.8,3.3-1.9,4.6-3.4c0,0,0.1-0.1,0.1-0.1c0,0,0.1,0,0.1,0c0,0,0.1,0.1,0.1,0.1c0,0,0,0.1,0,0.1
			c-1,2.5-2.6,4.6-4.8,6.1h3.6c1,0,1.9-0.2,2.8-0.6S27.5,21.4,28,20.6L28,20.6z M26.1,11.1c-0.2-0.2-0.3-0.5-0.4-0.8
			c-0.1-0.3,0-0.6,0.1-0.9c0.1-0.3,0.3-0.5,0.5-0.7c0.2-0.2,0.5-0.2,0.8-0.2c0.3,0,0.6,0.1,0.8,0.2c0.2,0.2,0.4,0.4,0.5,0.7
			c0.1,0.3,0.1,0.6,0.1,0.9c-0.1,0.3-0.2,0.5-0.4,0.8c-0.3,0.3-0.7,0.4-1,0.4C26.8,11.5,26.4,11.3,26.1,11.1L26.1,11.1z M29.6,21.5
			c-1.2,1.9-3,3.4-5.1,4.2l2.7,7.6h8c-1.6-4.6-3.3-9.1-4.9-13.2C30,20.6,29.8,21.1,29.6,21.5L29.6,21.5z M0.1,33.3h8.1l2.6-8H2.9
			C2,27.8,1,30.4,0.1,33.3z M10.7,15l4.6-3.8c0.8-2.1,1.6-4.1,2.4-5.9c0.4,0.9,0.8,1.9,1.2,2.9c1.8-1.5,3-2.3,3-2.3l0,0
			c0.7-0.5,1.5-0.9,2.4-1.1c-1.1-2.3-1.8-3.9-2.2-4.6h-9c-0.8,1.7-3.6,7.5-6.8,15.2h3.3C10,15.3,10.4,15.2,10.7,15L10.7,15z"/>
		<path class="st4" d="M45.2,28.7c-0.4,0.1-0.8,0-1.2-0.1c-0.4-0.1-0.7-0.3-1-0.6c-0.3-0.3-0.5-0.6-0.7-1c-0.1-0.4-0.2-0.8-0.2-1.2
			V13.3h-6.5v13.3c0,4.9,2.2,7.3,6.8,7.3"/>
		<path class="st4" d="M48.4,27.2c-0.8,0.9-2,1.4-3.2,1.4c-0.4,0.1-0.8,0-1.2-0.1c-0.4-0.1-0.7-0.3-1-0.6c-0.3-0.3-0.5-0.6-0.7-1
			c-0.1-0.4-0.2-0.8-0.2-1.2V13.1h-6.5v13.5c0,4.9,2.2,7.3,6.8,7.3c1.3,0.1,2.6-0.1,3.7-0.6c1.2-0.5,2.3-1.2,3.1-2.1l0.4,2.2h5.3
			V13.1h-6.5V27.2z M69.2,28.3c-3.3,0-5-2-5-5.1c0-3,1.7-4.8,4.9-4.8c1.6,0,3.1,0.4,4.4,1.3l0.9-5.5c-2.2-1-4.5-1.4-6.9-1.4
			c-6.6,0-10.2,3.8-10.2,10.7c0,6.9,3.4,10.5,10,10.5c2.6,0,5.2-0.6,7.5-1.8l-0.9-5.2C72.5,27.7,70.9,28.2,69.2,28.3L69.2,28.3z
			 M89.5,12.7c-2.1-0.1-4.2,0.5-5.9,1.7V5.6h-6.8v27.7h6.8v-14c0.4-0.4,0.9-0.8,1.4-1c0.5-0.2,1.1-0.4,1.7-0.4c0.4,0,0.8,0,1.2,0.1
			c0.4,0.1,0.7,0.3,1,0.6c0.3,0.3,0.5,0.6,0.6,1c0.1,0.4,0.2,0.8,0.1,1.2v12.4h6.8V20.1C96.4,15.2,94.1,12.7,89.5,12.7L89.5,12.7z
			 M134.1,12.7c-1.3-0.1-2.6,0.1-3.8,0.5c-1.2,0.5-2.3,1.2-3.2,2.1l-0.5-2.3h-5.4v20.2h6.8v-14c0.4-0.4,0.9-0.8,1.4-1
			c0.5-0.2,1.1-0.4,1.7-0.4c0.4,0,0.8,0,1.2,0.1c0.4,0.1,0.7,0.3,1,0.6c0.3,0.3,0.5,0.6,0.6,1c0.1,0.4,0.2,0.8,0.1,1.2v12.4h6.8
			V20.1C140.9,15.2,138.7,12.7,134.1,12.7L134.1,12.7z M98.7,24.1c0,6.8,2.5,9.8,7.5,9.8c1.2,0.1,2.4-0.1,3.5-0.6
			c1.1-0.5,2-1.2,2.8-2.1l0.3,2.2h5.4V14c-3-0.9-6.1-1.4-9.3-1.3C102.3,12.7,98.7,16.8,98.7,24.1L98.7,24.1z M111.4,27.2
			c-0.4,0.4-0.9,0.8-1.5,1c-0.6,0.2-1.1,0.4-1.8,0.4c-1.8,0-2.8-1.6-2.8-4.8c0-3.9,1.1-5.8,3.2-5.8c0.9,0,1.9,0.1,2.8,0.3
			L111.4,27.2z"/>
	</g>
</g>
</svg>
